<svg width="32" height="32" viewBox="0 0 32 32" fill="none" xmlns="http://www.w3.org/2000/svg">
<mask id="mask0_1635_3950" style="mask-type:alpha" maskUnits="userSpaceOnUse" x="0" y="0" width="32" height="32">
<path d="M20.8435 0H11.1565C7.944 0 6.33787 0 4.6088 0.546663C2.7208 1.23387 1.23387 2.7208 0.546668 4.6088C0 6.33787 0 7.94426 0 11.1565V20.8435C0 24.056 0 25.6619 0.546668 27.3912C1.23387 29.2792 2.7208 30.7661 4.6088 31.4531C6.33787 32 7.944 32 11.1565 32H20.8435C24.056 32 25.6619 32 27.3912 31.4531C29.2792 30.7661 30.7661 29.2792 31.4533 27.3912C32 25.6619 32 24.056 32 20.8435V11.1565C32 7.94426 32 6.33787 31.4533 4.6088C30.7661 2.7208 29.2792 1.23387 27.3912 0.546663C25.6619 0 24.056 0 20.8435 0Z" fill="#C4C4C4"/>
</mask>
<g mask="url(#mask0_1635_3950)">
<rect width="32" height="32" fill="#F52D30"/>
<path d="M22.9765 18.2718H21.1097L19.1336 20.9882H18.5685V14.0386L21.8809 10.6465C22.1277 10.3936 22.3234 10.0935 22.4569 9.76317C22.5904 9.43286 22.6591 9.07886 22.659 8.72137C22.6589 8.36389 22.59 8.00993 22.4563 7.6797C22.3226 7.34947 22.1267 7.04944 21.8798 6.79674C21.6329 6.54404 21.3398 6.34361 21.0172 6.20691C20.6947 6.0702 20.349 5.99989 19.9999 6C19.6508 6.00011 19.3051 6.07062 18.9827 6.20752C18.6602 6.34442 18.3672 6.54503 18.1204 6.79788L17.8017 7.12316L17.4829 6.79788C16.9798 6.3117 16.3115 6.04549 15.6198 6.0558C14.9281 6.06611 14.2676 6.35212 13.7785 6.85308C13.2895 7.35405 13.0104 8.03051 13.0005 8.73881C12.9907 9.44711 13.2508 10.1314 13.7257 10.6465L17.0204 14.0237V25H18.5685V22.4639H19.3264L21.1264 25H22.9999L20.5412 21.576L22.9765 18.2718ZM14.779 7.87759C14.9978 7.65407 15.2942 7.52854 15.6032 7.52854C15.9122 7.52854 16.2086 7.65407 16.4274 7.87759L17.8017 9.28486L19.177 7.87759C19.3958 7.65407 19.6922 7.52854 20.0012 7.52854C20.3103 7.52854 20.6067 7.65407 20.8254 7.87759C21.0437 8.10161 21.1663 8.40515 21.1663 8.72161C21.1663 9.03807 21.0437 9.34161 20.8254 9.56563L17.8017 12.6621L14.779 9.56563C14.5607 9.34161 14.4381 9.03807 14.4381 8.72161C14.4381 8.40515 14.5607 8.10161 14.779 7.87759Z" fill="white"/>
<path d="M12.2082 25C11.329 25 10.5724 24.6831 9.93838 24.0493C9.31279 23.4155 9 22.638 9 21.7169C9 20.7958 9.30857 20.0141 9.9257 19.3718C10.5513 18.7296 11.3037 18.4085 12.1829 18.4085C13.0874 18.4085 13.8102 18.7254 14.3513 19.3592V16H15.9998V25H14.3513V24.0239C13.8102 24.6747 13.0959 25 12.2082 25ZM13.806 20.3225C13.451 19.9254 13.0071 19.7268 12.4745 19.7268C11.9419 19.7268 11.4981 19.9254 11.1431 20.3225C10.788 20.7113 10.6105 21.1761 10.6105 21.7169C10.6105 22.2578 10.788 22.7225 11.1431 23.1113C11.4981 23.5 11.9419 23.6944 12.4745 23.6944C13.0071 23.6944 13.451 23.5 13.806 23.1113C14.1695 22.7141 14.3513 22.2493 14.3513 21.7169C14.3513 21.1761 14.1695 20.7113 13.806 20.3225Z" fill="white"/>
</g>
</svg>
